<svg width="16px" height="16px" xmlns="http://www.w3.org/2000/svg" viewBox="0 0 307.4 307.4"><style>.st0{fill:#000}</style><path class="st0" d="M153.7 307.4C69 307.4 0 238.5 0 153.7 0 69 68.9 0 153.7 0c84.7 0 153.7 68.9 153.7 153.7 0 84.7-69 153.7-153.7 153.7zm0-301.7c-81.6 0-148 66.4-148 148s66.4 148 148 148 148-66.4 148-148-66.4-148-148-148z"/><path class="st0" d="M100.2 162.8c-8.2 0-18-.5-26.5 0v-3.4l3.5-.6c3.6-.6 4.1-2.1 4.1-14.1v-34.6c0-12.1-.4-13.6-4.1-14.2l-3.5-.5v-3.7c8.2.4 16.4 0 24.6 0 16.4 0 28.9 4.5 28.9 17 0 7.3-3.9 12.7-15.6 15.6 13.4 1.8 20.3 8.4 20.3 17.5 0 12.6-11.1 21-31.7 21zm13.2-52.9c0-9.1-6.4-14-18.5-14v27.7h4.2c8.3 0 14.3-4.8 14.3-13.7zm4.3 33.4c0-9.8-7.4-15.8-17.9-15.8h-4.9v21.7c0 7.5 2.1 9.7 8 9.7 9.4 0 14.8-5.9 14.8-15.6zm98 19.5c-8.6-.5-19.8-.5-28.7 0v-3.4l3.4-.6c3.7-.6 4.1-2.2 4.1-14.6V128h-30.8v16.2c0 12.5.4 14 4.1 14.6l3.5.6v3.4c-8.7-.5-19.9-.5-28.8 0v-3.4l3.5-.6c3.6-.6 4.1-2.2 4.1-14.6v-33.6c0-12.5-.4-14-4.1-14.7l-3.5-.6v-3.6c8.7.5 20.1.5 28.8 0v3.5l-3.5.6c-3.6.6-4.1 2.2-4.1 14.7v12.7h30.9v-12.7c0-12.5-.3-14-4.1-14.7l-3.4-.6v-3.5c8.7.5 20.1.5 28.7 0v3.5l-3.4.6c-3.6.6-4.1 2.2-4.1 14.7v33.6c0 12.5.4 14 4.1 14.6l3.4.6v3.5h-.1zm19.4 1.4c-4.8 0-8.4-3.6-8.4-8.2 0-4.7 3.6-8.3 8.4-8.3 4.7 0 8.3 3.6 8.3 8.3 0 4.5-3.7 8.2-8.3 8.2zm-100.5 69.2c-3.9 0-7.8-1.2-10.8-3.5l-3.2 3.5-1.3-.3v-33.8c0-10.4 0-12-3.5-12.4l-1.3-.1v-2.3c5.6 0 9-.2 12.6-1.3l.6.7c-.2 4-.3 11.1-.3 15v5.4c2.3-3.4 5.6-5.2 10.3-5.2 8.4 0 13.3 7 13.3 15.9.1 12.1-8 18.4-16.4 18.4zm.4-2.5c4.1 0 7.5-3.3 7.5-11.6 0-9.4-3.5-14.9-9-14.9-2.7 0-4.6.9-6 2.8v12.5c0 9 4 11.2 7.5 11.2zm27.6 16.5c-3.6 0-4.7-2.9-4.7-5.6l.5-1c7.4-.3 11.8-1.2 14.6-8.6l.2-.5h-2.5l-10.1-23c-2.3-5-2.9-6-5.8-6.5V200c5.6.3 11.4.3 17.1 0v2.2l-1.6.4c-2.5.7-2.5 1.9-.9 5.8l6.6 15.9 4.9-13c2.3-6.2 1.9-8.1-.3-8.7l-1.6-.5v-2.2c4.1.3 8.3.3 12 0v2.2l-1 .3c-2.1.5-3.6 2.2-6.7 9.8l-8.1 19.7c-5.4 13.1-8.8 15.5-12.6 15.5z"/></svg>