<svg width="30" height="30" xmlns="http://www.w3.org/2000/svg" viewBox="0 0 612.074 612.074"><path d="M306.037 0C136.997 0 0 136.997 0 306.037s136.997 306.037 306.037 306.037 306.037-136.997 306.037-306.037S475.077 0 306.037 0zm0 582.405c-153.019 0-276.368-124.165-276.368-276.368S153.019 29.669 306.037 29.669s276.368 124.165 276.368 276.368S458.24 582.405 306.037 582.405zm120.16-306.037c5.637 5.637 5.637 15.205 0 20.843-3.189 3.189-6.379 4.005-10.384 4.005-4.005 0-7.195-1.632-10.384-4.005l-85.002-84.928v234.683c0 8.011-6.379 14.39-14.39 14.39-8.011 0-14.39-6.379-14.39-14.39V212.283l-84.186 84.112c-5.637 5.637-15.205 5.637-20.843 0s-5.637-15.205 0-20.843l108.96-108.886c.816-.816 1.632-1.632 2.374-1.632l.816-.816c.816 0 .816-.816 1.632-.816s.816 0 1.632-.816h8.901c.816 0 .816 0 1.632.816.816 0 .816.816 1.632.816 0 0 .816 0 .816.816.816.816 1.632.816 2.374 1.632l108.81 109.702z"/></svg>