<svg width="50" height="50" xmlns="http://www.w3.org/2000/svg" viewBox="0 0 100 100" preserveAspectRatio="xMidYMid" class="uil-gear"><path fill="none" class="bk" d="M0 0h100v100H0z"/><path d="M75 50.5l5-1.5c-.1-2.2-.4-4.3-.9-6.3l-5.2-.1c-.2-.6-.4-1.1-.6-1.7l4-3.3c-.9-1.9-2-3.8-3.2-5.5L69.2 34c-.4-.5-.8-.9-1.2-1.3l2.4-4.6c-1.6-1.4-3.3-2.7-5.1-3.8l-3.7 3.6c-.5-.3-1.1-.5-1.6-.8l.5-5.2c-2-.7-4-1.3-6.2-1.6l-2.1 4.8c-.6-.1-1.2-.1-1.8-.1l-1.5-5c-2.2.1-4.3.4-6.3.9l-.1 5.2c-.6.2-1.1.4-1.7.6l-3.3-4c-1.9.9-3.8 2-5.5 3.2l1.9 4.9c-.5.4-.9.8-1.3 1.2L28 29.6c-1.4 1.6-2.7 3.3-3.8 5.1l3.6 3.7c-.3.5-.5 1.1-.8 1.6l-5.2-.5c-.7 2-1.3 4-1.6 6.2l4.8 2.1c-.1.6-.1 1.2-.1 1.8l-5 1.5c.1 2.2.4 4.3.9 6.3l5.2.1c.2.6.4 1.1.6 1.7l-4 3.3c.9 1.9 2 3.8 3.2 5.5l4.9-1.9c.4.5.8.9 1.2 1.3L29.5 72c1.6 1.4 3.3 2.7 5.1 3.8l3.7-3.6c.5.3 1.1.5 1.6.8l-.5 5.2c2 .7 4 1.3 6.2 1.6l2.1-4.8c.6.1 1.2.1 1.8.1l1.5 5c2.2-.1 4.3-.4 6.3-.9l.1-5.2c.6-.2 1.1-.4 1.7-.6l3.3 4c1.9-.9 3.8-2 5.5-3.2l-1.9-5c.5-.4.9-.8 1.3-1.2l4.6 2.4c1.4-1.6 2.7-3.3 3.8-5.1l-3.6-3.7c.3-.5.5-1.1.8-1.6l5.2.5c.7-2 1.3-4 1.6-6.2l-4.8-2.1c0-.5.1-1.1.1-1.7zM50 65c-8.3 0-15-6.7-15-15s6.7-15 15-15 15 6.7 15 15-6.7 15-15 15z"><animateTransform attributeName="transform" type="rotate" from="0 50 50" to="90 50 50" dur="1s" repeatCount="indefinite"/></path></svg>