<svg width="300" xmlns="http://www.w3.org/2000/svg" viewBox="0 0 1352.7 84"><style>.st0{fill:#000}</style><path class="st0" d="M31.3 84C21.6 84 10 83.4 0 84v-4l4.2-.7C8.5 78.6 9 76.8 9 62.6V21.7C9 7.4 8.5 5.6 4.2 4.9L0 4.3V0c9.7.5 19.4 0 29.1 0 19.4 0 34.2 5.3 34.2 20.1 0 8.6-4.7 15-18.4 18.4 15.8 2.1 24 10 24 20.6-.2 15-13.3 24.9-37.6 24.9zm15.6-62.5c0-10.8-7.6-16.6-21.9-16.6v32.8h4.9c9.8 0 17-5.8 17-16.2zm5 39.4c0-11.5-8.7-18.7-21.1-18.7H25v25.7c0 8.8 2.5 11.4 9.5 11.4 11 0 17.4-6.8 17.4-18.4zM180.6 84c-24.7-.6-45.7-.6-62.5 0v-4l4.2-.7c4.3-.7 4.8-2.5 4.8-16.5V21.5c0-14.1-.5-15.8-4.8-16.6l-4.2-.7V0c17.4.7 38.9.6 60.9 0-.2 7.7-.1 15.2.2 23.2l-2.8.6c-5.2-15.5-7.7-18.4-19-18.4h-14.3V40l9.3-.4c8.5-.4 10.6-2.6 12.9-9.6l.6-2.1h2.9c-.5 8-.6 20.1 0 28.1h-2.9l-.6-2.1c-2.3-6.8-4.4-9.2-12.9-9.6l-9.3-.4v20.5c0 11.2 2.7 14.6 12.8 14.6h4.5c8.4 0 13.1-3.1 22-19.7l2.6 1c-1.9 8.5-3.6 16-4.4 23.7zm130.9 0c-11.8-.4-23.7-.4-34.8 0v-4l2.5-.6c5.5-1.2 7-2.3 3.9-11.1l-3.8-10.7h-28.6l-3.4 10.3c-2.6 8-.5 10.1 5.5 11.4l2.3.6V84c-7.7-.5-18.4-.5-26.8 0v-4l2.5-.6c4.3-1.2 7.2-3.1 10.8-12.8l11.3-30.8c4.8-13 6.4-18.9 6.4-22.9 0-2.8-1.1-4.2-3.4-5l-2.8-.9V3.3c6.9 0 15.5-2.1 19.9-4.9h2.1l25.8 69.2c3.6 9.8 5.3 11.2 8.6 11.9l2.1.5-.1 4zm-34.1-31.7l-13-36.4-12 36.4h25zm81.1-47.4l-3.9-.7V0c10.8.7 23.5.7 33.9 0v4.2l-3.9.7c-4.5.7-4.9 2.6-4.9 17.3v31.7c0 16.6 6.6 24.7 19.9 24.7 12.9 0 20.3-8.2 20.1-27.5l-.4-31.8c-.1-11.4-1.2-13.5-6.4-14.5l-2.8-.6V0c8.2.6 17 .6 24.4 0v4.2l-3.7.9c-3.7.7-5.5 2.7-5.5 14.3v32.3c0 25.2-12.9 34-30.5 34s-31.4-7.5-31.4-30.6V22.3c0-14.8-.1-16.7-4.9-17.4zm150.9-.4h-6.9c-6.8 0-11.3 5.2-16.6 18.4l-2.5 6.3-3.3-.5c1-9.6 1.7-19.4 2-28.7 28 .6 42.4.6 70.8 0 .2 9.3.9 19.2 2 28.7l-3.3.5-2.5-6.3c-5.5-14-10.3-18.4-16.7-18.4h-6.8v57.4c0 14.7.2 16.6 4.8 17.3l4.2.7V84c-10.7-.6-23.6-.6-34.3 0v-4l4.2-.7c4.5-.7 4.9-2.6 4.9-17.3V4.5zM653.7 84c-10.2-.6-23.7-.6-34 0v-4l4.2-.5c4.5-.5 4.8-2.6 4.8-17.6V48.8l-17.9-31c-6.6-11.5-7.6-12.5-10.9-13.1l-2.1-.5V0c10.4.6 23 .5 35.5 0v4.2l-2.5.5c-6.4 1.2-7.6 3.7-3.2 11.3l14.9 25.6 12.4-24.7c4.2-8.5.9-11.3-3.3-12.2l-2.5-.5V0c7.2.7 18.7.7 25.9 0v4.2l-2.5.5c-3.3.7-6.4 3.4-11.5 12.7l-16.2 29.1V62c0 15 .4 17.1 4.8 17.6l4.2.5V84h-.1zm215.8 0c-10.2-.6-23.5-.6-33.9 0v-4l4.1-.7c4.4-.7 4.8-2.6 4.8-17.3V42.8H808V62c0 14.7.5 16.6 4.8 17.3l4.2.7v4.1c-10.3-.6-23.6-.6-34 0V80l4.2-.7c4.3-.7 4.8-2.6 4.8-17.3V22.3c0-14.7-.5-16.6-4.8-17.3l-4.2-.7V0c10.3.6 23.7.6 34 0v4.2l-4.2.7c-4.3.7-4.8 2.6-4.8 17.3v15h36.5v-15c0-14.7-.4-16.6-4.8-17.3l-4.1-.7V0c10.3.6 23.7.6 33.9 0v4.2l-4.1.7c-4.3.7-4.8 2.6-4.8 17.3v39.7c0 14.7.5 16.6 4.8 17.3l4.1.7V84zM1002 42.2c0 25.7-17.6 43.4-41.5 43.4-22.2 0-41.5-17.2-41.5-43.9 0-25.7 17.6-43.4 41.5-43.4 22.2.1 41.5 17.4 41.5 43.9zM956.3 3.9c-12.3 0-20.1 11.2-20.1 30.3 0 27.5 13.4 45.9 28.5 45.9 12.3 0 20.1-11.2 20.1-30.5 0-27.3-13.4-45.7-28.5-45.7zm98 1l-3.9-.7V0c10.8.7 23.5.7 33.9 0v4.2l-3.9.7c-4.5.7-4.9 2.6-4.9 17.3v31.7c0 16.6 6.6 24.7 19.9 24.7 12.9 0 20.3-8.2 20.1-27.5l-.4-31.8c-.1-11.4-1.2-13.5-6.4-14.5l-2.8-.6V0c8.2.6 17 .6 24.4 0v4.2l-3.7.9c-3.7.7-5.5 2.7-5.5 14.3v32.3c0 25.2-12.9 34-30.5 34s-31.4-7.5-31.4-30.6V22.3c0-14.8-.1-16.7-4.9-17.4zm168.9 63c0-22.1-43.9-17.7-43.9-45.5 0-13.5 10.3-24.1 28.9-24.1 9.6 0 17.7 2.8 23.2 6.8-.4 5.7-.5 12.9-.4 19.7l-3.3.7c-4.5-14.7-10.8-22.1-20.8-22.1-8.2 0-13.1 5-13.1 12.2 0 21.3 43.9 16 43.9 44.8 0 14.5-10.7 25.2-32.3 25.2-10.8 0-20-2.8-25.6-6.8.4-5.8.4-15.1.2-22.7l3.3-.7c3.8 15.7 11.8 25.1 24.9 25.1 8.9 0 15-4.8 15-12.6zM1348.3 84c-24.7-.6-45.7-.6-62.5 0v-4l4.2-.7c4.3-.7 4.8-2.5 4.8-16.5V21.5c0-14.1-.5-15.8-4.8-16.6l-4.2-.7V0c17.4.7 38.9.6 60.9 0-.2 7.7-.1 15.2.2 23.2l-2.8.6c-5.2-15.5-7.7-18.4-19-18.4h-14.3V40l9.3-.4c8.5-.4 10.6-2.6 12.9-9.6l.6-2.1h2.9c-.5 8-.6 20.1 0 28.1h-2.9l-.6-2.1c-2.3-6.8-4.4-9.2-12.9-9.6l-9.3-.4v20.5c0 11.2 2.7 14.6 12.8 14.6h4.5c8.4 0 13.1-3.1 22-19.7l2.6 1c-2 8.5-3.7 16-4.4 23.7z"/></svg>